#define blocks_width 90
#define blocks_height 105
static char blocks_bits[] = {
   0x00, 0x00, 0x00, 0x00, 0x00, 0x00, 0x00, 0x00, 0x00, 0x00, 0x00, 0x00,
   0x00, 0x00, 0x00, 0x00, 0x00, 0x00, 0x00, 0x00, 0x00, 0x00, 0x00, 0x00,
   0x00, 0x00, 0x00, 0x00, 0x00, 0x00, 0x00, 0x00, 0x00, 0x00, 0x00, 0x00,
   0x00, 0x00, 0x00, 0x00, 0x00, 0x38, 0x00, 0x00, 0x00, 0x00, 0x00, 0x00,
   0x00, 0x00, 0x00, 0x00, 0x00, 0xc6, 0x00, 0x00, 0x00, 0x00, 0x00, 0x00,
   0x00, 0x00, 0x00, 0x00, 0xc0, 0x01, 0x07, 0x00, 0x00, 0x00, 0x00, 0x00,
   0x00, 0x00, 0x00, 0x00, 0x30, 0x00, 0x18, 0x00, 0x00, 0x00, 0x00, 0x00,
   0x00, 0x00, 0x00, 0x00, 0x0c, 0x00, 0x60, 0x00, 0x00, 0x00, 0x00, 0x00,
   0x00, 0x00, 0x00, 0x80, 0x03, 0x00, 0x80, 0x03, 0x00, 0x00, 0x00, 0x00,
   0x00, 0x00, 0x00, 0x60, 0x00, 0x00, 0x00, 0x0c, 0x00, 0x00, 0x00, 0x00,
   0x00, 0x00, 0x00, 0x18, 0x00, 0x00, 0x00, 0x30, 0x00, 0x00, 0x00, 0x00,
   0x00, 0x00, 0x00, 0x68, 0x00, 0x00, 0x00, 0x2c, 0x00, 0x00, 0x00, 0x00,
   0x00, 0x00, 0x00, 0x88, 0x03, 0x00, 0x80, 0x23, 0x00, 0x00, 0x00, 0x00,
   0x00, 0x00, 0x00, 0x08, 0x0c, 0x00, 0x60, 0x20, 0x00, 0x00, 0x00, 0x00,
   0x00, 0x00, 0x00, 0x08, 0x30, 0x00, 0x18, 0x20, 0x00, 0x00, 0x00, 0x00,
   0x00, 0x00, 0x00, 0x08, 0xc0, 0x01, 0x07, 0x20, 0x00, 0x00, 0x00, 0x00,
   0x00, 0x00, 0x00, 0x08, 0x00, 0xc6, 0x00, 0x20, 0x00, 0x00, 0x00, 0x00,
   0x00, 0x00, 0x00, 0x08, 0x00, 0x38, 0x00, 0x20, 0x00, 0x00, 0x00, 0x00,
   0x00, 0x00, 0x00, 0x08, 0x00, 0x10, 0x00, 0x20, 0x00, 0x00, 0x00, 0x00,
   0x00, 0x00, 0x00, 0x08, 0x00, 0x10, 0x00, 0x20, 0x00, 0x00, 0x00, 0x00,
   0x00, 0x00, 0x00, 0x08, 0x00, 0x10, 0x00, 0x20, 0x00, 0x00, 0x00, 0x00,
   0x00, 0x00, 0x00, 0x08, 0x00, 0x10, 0x00, 0x20, 0x00, 0x00, 0x00, 0x00,
   0x00, 0x00, 0x00, 0x08, 0x00, 0x10, 0x00, 0x20, 0x00, 0x00, 0x00, 0x00,
   0x00, 0x00, 0x00, 0x08, 0x00, 0x10, 0x00, 0x20, 0x00, 0x00, 0x00, 0x00,
   0x00, 0x00, 0x00, 0x08, 0x00, 0x10, 0x00, 0x20, 0x00, 0x00, 0x00, 0x00,
   0x00, 0x00, 0x00, 0x08, 0x00, 0x10, 0x00, 0x20, 0x00, 0x00, 0x00, 0x00,
   0x00, 0x00, 0x00, 0x08, 0x00, 0x10, 0x00, 0x20, 0x00, 0x00, 0x00, 0x00,
   0x00, 0x00, 0x00, 0x08, 0x00, 0x10, 0x00, 0x20, 0x00, 0x00, 0x00, 0x00,
   0x00, 0x00, 0x00, 0x08, 0x00, 0x10, 0x00, 0x20, 0x00, 0x00, 0x00, 0x00,
   0x00, 0x00, 0x00, 0x08, 0x00, 0x10, 0x00, 0x20, 0x00, 0x00, 0x00, 0x00,
   0x00, 0x00, 0x00, 0x1c, 0x00, 0x10, 0x00, 0x70, 0x00, 0x00, 0x00, 0x00,
   0x00, 0x00, 0x00, 0x63, 0x00, 0x10, 0x00, 0x8c, 0x01, 0x00, 0x00, 0x00,
   0x00, 0x00, 0xe0, 0x80, 0x03, 0x10, 0x80, 0x03, 0x0e, 0x00, 0x00, 0x00,
   0x00, 0x00, 0x18, 0x00, 0x0c, 0x10, 0x60, 0x00, 0x30, 0x00, 0x00, 0x00,
   0x00, 0x00, 0x06, 0x00, 0x30, 0x10, 0x18, 0x00, 0xc0, 0x00, 0x00, 0x00,
   0x00, 0xc0, 0x01, 0x00, 0xc0, 0x11, 0x07, 0x00, 0x00, 0x07, 0x00, 0x00,
   0x00, 0x30, 0x00, 0x00, 0x00, 0xd6, 0x00, 0x00, 0x00, 0x18, 0x00, 0x00,
   0x00, 0x0c, 0x00, 0x00, 0x00, 0x38, 0x00, 0x00, 0x00, 0x60, 0x00, 0x00,
   0x00, 0x34, 0x00, 0x00, 0x00, 0xd6, 0x00, 0x00, 0x00, 0x58, 0x00, 0x00,
   0x00, 0xc4, 0x01, 0x00, 0xc0, 0x11, 0x07, 0x00, 0x00, 0x47, 0x00, 0x00,
   0x00, 0x04, 0x06, 0x00, 0x30, 0x10, 0x18, 0x00, 0xc0, 0x40, 0x00, 0x00,
   0x00, 0x04, 0x18, 0x00, 0x0c, 0x10, 0x60, 0x00, 0x30, 0x40, 0x00, 0x00,
   0x00, 0x04, 0xe0, 0x80, 0x03, 0x10, 0x80, 0x03, 0x0e, 0x40, 0x00, 0x00,
   0x00, 0x04, 0x00, 0x63, 0x00, 0x10, 0x00, 0x8c, 0x01, 0x40, 0x00, 0x00,
   0x00, 0x04, 0x00, 0x1c, 0x00, 0x10, 0x00, 0x70, 0x00, 0x40, 0x00, 0x00,
   0x00, 0x04, 0x00, 0x08, 0x00, 0x10, 0x00, 0x20, 0x00, 0x40, 0x00, 0x00,
   0x00, 0x04, 0x00, 0x08, 0x00, 0x10, 0x00, 0x20, 0x00, 0x40, 0x00, 0x00,
   0x00, 0x04, 0x00, 0x08, 0x00, 0x10, 0x00, 0x20, 0x00, 0x40, 0x00, 0x00,
   0x00, 0x04, 0x00, 0x08, 0x00, 0x10, 0x00, 0x20, 0x00, 0x40, 0x00, 0x00,
   0x00, 0x04, 0x00, 0x08, 0x00, 0x10, 0x00, 0x20, 0x00, 0x40, 0x00, 0x00,
   0x00, 0x04, 0x00, 0x08, 0x00, 0x10, 0x00, 0x20, 0x00, 0x40, 0x00, 0x00,
   0x00, 0x04, 0x00, 0x08, 0x00, 0x10, 0x00, 0x20, 0x00, 0x40, 0x00, 0x00,
   0x00, 0x04, 0x00, 0x08, 0x00, 0x10, 0x00, 0x20, 0x00, 0x40, 0x00, 0x00,
   0x00, 0x04, 0x00, 0x08, 0x00, 0x10, 0x00, 0x20, 0x00, 0x40, 0x00, 0x00,
   0x00, 0x04, 0x00, 0x08, 0x00, 0x10, 0x00, 0x20, 0x00, 0x40, 0x00, 0x00,
   0x00, 0x04, 0x00, 0x08, 0x00, 0x10, 0x00, 0x20, 0x00, 0x40, 0x00, 0x00,
   0x00, 0x04, 0x00, 0x08, 0x00, 0x10, 0x00, 0x20, 0x00, 0x40, 0x00, 0x00,
   0x00, 0x04, 0x00, 0x08, 0x00, 0x10, 0x00, 0x20, 0x00, 0x40, 0x00, 0x00,
   0x00, 0x0c, 0x00, 0x08, 0x00, 0x38, 0x00, 0x20, 0x00, 0x60, 0x00, 0x00,
   0x00, 0x30, 0x00, 0x08, 0x00, 0xc6, 0x00, 0x20, 0x00, 0x18, 0x00, 0x00,
   0x00, 0xc0, 0x01, 0x08, 0xc0, 0x01, 0x07, 0x20, 0x00, 0x07, 0x00, 0x00,
   0x00, 0x00, 0x06, 0x08, 0x30, 0x00, 0x18, 0x20, 0xc0, 0x00, 0x00, 0x00,
   0x00, 0x00, 0x18, 0x08, 0x0c, 0x00, 0x60, 0x20, 0x30, 0x00, 0x00, 0x00,
   0x00, 0x00, 0xe0, 0x88, 0x03, 0x00, 0x80, 0x23, 0x0e, 0x00, 0x00, 0x00,
   0x00, 0x00, 0x00, 0x6b, 0x00, 0x00, 0x00, 0xac, 0x01, 0x00, 0x00, 0x00,
   0x00, 0x00, 0x00, 0x1c, 0x00, 0x00, 0x00, 0x70, 0x00, 0x00, 0x00, 0x00,
   0x00, 0x00, 0x00, 0x00, 0x00, 0x00, 0x00, 0x00, 0x00, 0x00, 0x00, 0x00,
   0x00, 0x00, 0x00, 0x00, 0x00, 0x00, 0x00, 0x00, 0x00, 0x00, 0x00, 0x00,
   0x00, 0x00, 0x00, 0x00, 0x00, 0x00, 0x00, 0x00, 0x00, 0x00, 0x00, 0x00,
   0x80, 0xff, 0xf1, 0x01, 0xc0, 0x03, 0x78, 0x7d, 0x38, 0x78, 0x01, 0x00,
   0x00, 0x06, 0xc3, 0x00, 0x30, 0x06, 0x86, 0x31, 0x18, 0xc4, 0x01, 0x00,
   0x00, 0x06, 0xc3, 0x00, 0x30, 0x0c, 0x86, 0x31, 0x08, 0x82, 0x01, 0x00,
   0x00, 0x06, 0xc6, 0x00, 0x18, 0x0c, 0x83, 0x31, 0x04, 0x03, 0x01, 0x00,
   0x00, 0x06, 0xc6, 0x00, 0x18, 0x18, 0x03, 0x31, 0x04, 0x03, 0x01, 0x00,
   0x00, 0x06, 0xc6, 0x00, 0x1c, 0x98, 0x03, 0x30, 0x02, 0x03, 0x00, 0x00,
   0x00, 0x06, 0xc6, 0x00, 0x1c, 0xb8, 0x03, 0x30, 0x02, 0x03, 0x00, 0x00,
   0x00, 0x06, 0xc6, 0x00, 0x0c, 0xb8, 0x01, 0x30, 0x01, 0x03, 0x00, 0x00,
   0x00, 0x06, 0xc7, 0x00, 0x0c, 0xb0, 0x01, 0xb0, 0x01, 0x03, 0x00, 0x00,
   0x00, 0x06, 0xc3, 0x00, 0x0e, 0xf0, 0x01, 0xb0, 0x00, 0x1f, 0x00, 0x00,
   0x00, 0xfe, 0xc1, 0x00, 0x0e, 0xf0, 0x01, 0xf0, 0x01, 0x3e, 0x00, 0x00,
   0x00, 0xc6, 0xc1, 0x00, 0x0e, 0xf0, 0x01, 0xf0, 0x01, 0xfe, 0x00, 0x00,
   0x00, 0x06, 0xc3, 0x00, 0x0e, 0xf0, 0x01, 0xf0, 0x01, 0xfc, 0x01, 0x00,
   0x00, 0x06, 0xc6, 0x00, 0x0e, 0xf0, 0x01, 0xb0, 0x03, 0xf0, 0x01, 0x00,
   0x00, 0x06, 0xc6, 0x00, 0x0e, 0xf0, 0x01, 0xb0, 0x03, 0xc0, 0x03, 0x00,
   0x00, 0x06, 0xce, 0x00, 0x0e, 0xf0, 0x01, 0xb0, 0x03, 0x80, 0x03, 0x00,
   0x00, 0x06, 0xcc, 0x00, 0x0c, 0xb0, 0x01, 0x30, 0x07, 0x80, 0x03, 0x00,
   0x00, 0x06, 0xcc, 0x00, 0x0c, 0xb0, 0x01, 0x30, 0x07, 0x00, 0x03, 0x00,
   0x00, 0x06, 0xcc, 0x00, 0x0c, 0xb8, 0x03, 0x30, 0x06, 0x00, 0x03, 0x00,
   0x00, 0x06, 0xcc, 0x00, 0x1c, 0x98, 0x03, 0x30, 0x0e, 0x00, 0x03, 0x00,
   0x00, 0x06, 0xce, 0x00, 0x18, 0x18, 0x03, 0x30, 0x0e, 0x00, 0x03, 0x00,
   0x00, 0x06, 0xce, 0x80, 0x19, 0x18, 0x07, 0x31, 0x9e, 0x01, 0x03, 0x00,
   0x00, 0x06, 0xc6, 0x80, 0x31, 0x0c, 0x06, 0x30, 0x9c, 0x01, 0x03, 0x00,
   0x00, 0x06, 0xc7, 0x80, 0x31, 0x0c, 0x8e, 0x30, 0x9c, 0x83, 0x01, 0x00,
   0x00, 0xc6, 0xc3, 0xc0, 0x61, 0x07, 0x7c, 0x30, 0xb8, 0xc7, 0x00, 0x00,
   0x80, 0xff, 0xf0, 0xff, 0xc1, 0x03, 0x38, 0x7c, 0xfe, 0x7d, 0x00, 0x00,
   0x00, 0x00, 0x00, 0x00, 0x00, 0x00, 0x00, 0x00, 0x00, 0x00, 0x00, 0x00,
   0x00, 0x00, 0x00, 0x00, 0x00, 0x00, 0x00, 0x00, 0x00, 0x00, 0x00, 0x00,
   0x00, 0x00, 0x00, 0x00, 0x00, 0x00, 0x00, 0x00, 0x00, 0x00, 0x00, 0x00,
   0x00, 0x00, 0x00, 0x00, 0x00, 0x00, 0x00, 0x00, 0x00, 0x00, 0x00, 0x00,
   0x00, 0x00, 0x00, 0x00, 0x00, 0x00, 0x00, 0x00, 0x00, 0x00, 0x00, 0x00,
   0x00, 0x00, 0x00, 0x00, 0x00, 0x00, 0x00, 0x00, 0x00, 0x00, 0x00, 0x00,
   0x00, 0x00, 0x00, 0x00, 0x00, 0x00, 0x00, 0x00, 0x00, 0x00, 0x00, 0x00,
   0x00, 0x00, 0x00, 0x00, 0x00, 0x00, 0x00, 0x00, 0x00, 0x00, 0x00, 0x00,
   0x00, 0x00, 0x00, 0x00, 0x00, 0x00, 0x00, 0x00, 0x00, 0x00, 0x00, 0x00,
   0x00, 0x00, 0x00, 0x00, 0x00, 0x00, 0x00, 0x00, 0x00, 0x00, 0x00, 0x00};
